# Exported from ProBuilder
# http://www.procore3d.com/probuilder
# 3/29/2018 11:11:31 PM

mtllib ./Screen.mtl
o Screen

g Plane
v 0 0.01201701 0.2185516
v 0 1.130723 0.2185516
v -1.413276 0.01201701 0.2185516
v -1.413276 1.130723 0.2185516
v -1.413276 0.01201701 0.2185516
v 0 0.01201701 0.2185516
v -1.413276 0 -0.07639933
v 0 0 -0.07639933

vn 0 0 -1
vn 0 0 -1
vn 0 0 -1
vn 0 0 -1
vn 0 0.9991711 -0.04070863
vn 0 0.9991711 -0.04070863
vn 0 0.9991711 -0.04070863
vn 0 0.9991711 -0.04070863

vt 0 0.2084308
vt 0 1
vt 1 0.2084308
vt 1 1
vt 1 0.2088733
vt 0 0.2088733
vt 1 0
vt 0 0

g Plane
usemtl Default_Prototype
f 3/3/3 4/4/4 2/2/2 1/1/1
f 8/8/8 7/7/7 5/5/5 6/6/6

